<?xml version="1.0" encoding="UTF-8"?>
<svg fill="none" viewBox="0 0 22 27" xmlns="http://www.w3.org/2000/svg">
<path d="m21.13 9.0274c-0.1555 0.11917-2.901 1.6471-2.901 5.0446 0 3.9298 3.4936 5.32 3.5982 5.3544-0.0161 0.0848-0.5551 1.904-1.842 3.7577-1.1476 1.6312-2.3461 3.2598-4.1693 3.2598s-2.2924-1.046-4.3972-1.046c-2.0511 0-2.7804 1.0804-4.4481 1.0804-1.6677 0-2.8314-1.5094-4.1693-3.3631-1.5497-2.1767-2.8018-5.5583-2.8018-8.7678 0-5.1479 3.389-7.8781 6.7244-7.8781 1.7723 0 3.2496 1.1493 4.3624 1.1493 1.059 0 2.7107-1.2181 4.7269-1.2181 0.7642 0 3.5097 0.06885 5.3168 2.6269zm-6.274-4.8063c0.8339-0.97715 1.4238-2.333 1.4238-3.6888 0-0.18801-0.0161-0.37868-0.051-0.53227-1.3567 0.050314-2.9708 0.89241-3.944 2.0073-0.7642 0.85798-1.4774 2.2138-1.4774 3.5882 0 0.20655 0.0349 0.4131 0.051 0.4793 0.0858 0.01589 0.2252 0.03443 0.3646 0.03443 1.2173 0 2.7482-0.80502 3.633-1.8881z" fill="#000"/>
</svg>
