<?xml version="1.0" encoding="UTF-8"?>
<svg fill="none" viewBox="0 0 22 25" xmlns="http://www.w3.org/2000/svg">
<path d="m16.737 11.587c-0.1077-0.0516-0.2171-0.1013-0.3279-0.1488-0.1929-3.5556-2.1358-5.5912-5.398-5.612-0.0148-9e-5 -0.0295-9e-5 -0.0443-9e-5 -1.9512 0-3.5741 0.83289-4.5729 2.3485l1.7941 1.2307c0.74617-1.1321 1.9172-1.3734 2.7797-1.3734 0.0099 0 0.0199 0 0.0298 1e-4 1.0741 0.00684 1.8847 0.31915 2.4093 0.92819 0.3818 0.44339 0.6371 1.0561 0.7635 1.8294-0.9523-0.1619-1.9823-0.2117-3.0833-0.1485-3.1016 0.1786-5.0956 1.9875-4.9616 4.5011 0.06795 1.275 0.70314 2.3719 1.7885 3.0884 0.91763 0.6057 2.0995 0.902 3.3278 0.8349 1.6221-0.0889 2.8946-0.7078 3.7824-1.8395 0.6742-0.8593 1.1006-1.973 1.2889-3.3763 0.773 0.4666 1.346 1.0805 1.6624 1.8185 0.538 1.2546 0.5694 3.3162-1.1128 4.9969-1.4738 1.4724-3.2454 2.1094-5.9228 2.129-2.97-0.022-5.2162-0.9744-6.6765-2.8309-1.3675-1.7385-2.0743-4.2494-2.1006-7.4632 0.02636-3.2138 0.73311-5.7248 2.1006-7.4632 1.4604-1.8565 3.7065-2.809 6.6764-2.831 2.9915 0.02224 5.2768 0.97929 6.7931 2.8447 0.7435 0.91479 1.304 2.0652 1.6736 3.4066l2.1024-0.56095c-0.4479-1.651-1.1527-3.0738-2.1118-4.2537-1.9439-2.3916-4.7869-3.617-8.45-3.6424h-0.0146c-3.6556 0.025322-6.4668 1.2554-8.3553 3.6562-1.6805 2.1363-2.5474 5.1089-2.5765 8.835l-9.1145e-5 0.0088 9.1145e-5 0.0088c0.029128 3.7261 0.89599 6.6988 2.5765 8.8351 1.8885 2.4006 4.6996 3.6308 8.3553 3.6561h0.0146c3.2501-0.0225 5.541-0.8734 7.4282-2.759 2.4692-2.4668 2.3948-5.5588 1.581-7.457-0.5838-1.3612-1.697-2.4668-3.2191-3.197zm-5.6115 5.2759c-1.3594 0.0766-2.7717-0.5336-2.8413-1.8405-0.05161-0.969 0.68961-2.0503 2.9247-2.1791 0.256-0.0147 0.5071-0.0219 0.7539-0.0219 0.8118 0 1.5713 0.0788 2.2618 0.2298-0.2575 3.2164-1.7682 3.7386-3.0991 3.8117z" fill="#000"/>
</svg>
