<?xml version="1.0" encoding="UTF-8"?>
<svg fill="none" viewBox="0 0 25 24" xmlns="http://www.w3.org/2000/svg">
<g clip-path="url(#a)" fill="#000">
<path d="m12.5 2.1609c3.3398 0 3.7354 0.01406 5.0488 0.07031 1.2207 0.05156 1.8799 0.24844 2.3194 0.4125 0.581 0.21563 1.0009 0.47813 1.4355 0.89531 0.4395 0.42188 0.708 0.82032 0.9326 1.3781 0.1709 0.42187 0.376 1.0594 0.4297 2.2266 0.0586 1.2656 0.0733 1.6453 0.0733 4.8468 0 3.2063-0.0147 3.586-0.0733 4.8469-0.0537 1.1719-0.2588 1.8047-0.4297 2.2266-0.2246 0.5578-0.498 0.9609-0.9326 1.3781-0.4394 0.4219-0.8545 0.6797-1.4355 0.8953-0.4395 0.1641-1.1036 0.3609-2.3194 0.4125-1.3183 0.0562-1.7138 0.0703-5.0488 0.0703-3.3398 0-3.7354-0.0141-5.0488-0.0703-1.2207-0.0516-1.8799-0.2484-2.3193-0.4125-0.58106-0.2156-1.001-0.4781-1.4356-0.8953-0.43945-0.4219-0.70801-0.8203-0.93262-1.3781-0.1709-0.4219-0.37597-1.0594-0.42969-2.2266-0.05859-1.2656-0.07324-1.6453-0.07324-4.8469 0-3.2062 0.01465-3.5859 0.07324-4.8468 0.05372-1.1719 0.25879-1.8047 0.42969-2.2266 0.22461-0.55781 0.49805-0.96094 0.93262-1.3781 0.43945-0.42187 0.85449-0.67968 1.4356-0.89531 0.43945-0.16406 1.1035-0.36094 2.3193-0.4125 1.3135-0.05625 1.709-0.07031 5.0488-0.07031zm0-2.1609c-3.3936 0-3.8184 0.014062-5.1514 0.070312-1.3281 0.05625-2.2412 0.2625-3.0322 0.55781-0.8252 0.30938-1.5234 0.71718-2.2168 1.3875-0.69824 0.66563-1.123 1.3359-1.4453 2.1234-0.30762 0.76407-0.52246 1.6359-0.58105 2.9109-0.058594 1.2844-0.073242 1.6922-0.073242 4.95 0 3.2578 0.014648 3.6656 0.073242 4.9453 0.058594 1.275 0.27344 2.1516 0.58105 2.911 0.32226 0.7921 0.74707 1.4625 1.4453 2.1281 0.69336 0.6656 1.3916 1.0781 2.2119 1.3828 0.7959 0.2953 1.7041 0.5015 3.0322 0.5578 1.333 0.0562 1.7578 0.0703 5.1514 0.0703 3.3936 0 3.8184-0.0141 5.1514-0.0703 1.3281-0.0563 2.2412-0.2625 3.0322-0.5578 0.8203-0.3047 1.5186-0.7172 2.2119-1.3828 0.6934-0.6656 1.1231-1.336 1.4405-2.1235 0.3076-0.764 0.5224-1.6359 0.581-2.9109 0.0586-1.2797 0.0733-1.6875 0.0733-4.9453 0-3.2578-0.0147-3.6656-0.0733-4.9453-0.0586-1.275-0.2734-2.1516-0.581-2.9109-0.3077-0.79688-0.7325-1.4672-1.4307-2.1328-0.6934-0.66562-1.3916-1.0781-2.2119-1.3828-0.7959-0.29531-1.7041-0.50156-3.0323-0.55781-1.3378-0.060938-1.7626-0.075-5.1562-0.075z"/>
<path d="m12.499 5.8359c-3.5449 0-6.4209 2.7609-6.4209 6.1641 0 3.4031 2.876 6.1641 6.4209 6.1641s6.4209-2.761 6.4209-6.1641c0-3.4031-2.876-6.1641-6.4209-6.1641zm0 10.162c-2.2998 0-4.165-1.7906-4.165-3.9984 0-2.2078 1.8652-3.9984 4.165-3.9984s4.1651 1.7906 4.1651 3.9984c0 2.2078-1.8653 3.9984-4.1651 3.9984z"/>
<path d="m20.674 5.5924c0 0.79688-0.6738 1.4391-1.499 1.4391-0.8301 0-1.499-0.64688-1.499-1.4391 0-0.79687 0.6738-1.4391 1.499-1.4391s1.499 0.64688 1.499 1.4391z"/>
</g>
<defs>
<clipPath id="a">
<rect width="25" height="24" fill="#fff"/>
</clipPath>
</defs>
</svg>
