<svg width="21" height="21" viewBox="0 0 21 21" fill="none" xmlns="http://www.w3.org/2000/svg">
<path fill-rule="evenodd" clip-rule="evenodd" d="M6.84547 5.11403C5.27313 6.18442 4.24343 7.98794 4.24343 10.0293C4.24343 13.3106 6.90347 15.9706 10.1848 15.9706C12.2261 15.9706 14.0296 14.9409 15.1 13.3686C10.7634 12.8945 7.31953 9.45065 6.84547 5.11403ZM16.1261 11.7268C16.8612 11.7268 17.4942 12.3746 17.2033 13.0497C16.0326 15.7664 13.3308 17.6682 10.1848 17.6682C5.96595 17.6682 2.5459 14.2481 2.5459 10.0293C2.5459 6.88327 4.44771 4.18145 7.16437 3.01077C7.83943 2.71987 8.48726 3.35286 8.48726 4.08794C8.48726 8.30678 11.9073 11.7268 16.1261 11.7268Z" fill="white"/>
</svg>
