<?xml version="1.0" encoding="UTF-8"?>
<svg viewBox="0 0 27 29" xmlns="http://www.w3.org/2000/svg">
<path d="m19.537 18.844c3.3512-1.873 5.9139-3.3001 6.1329-3.4116 0.7009-0.3791 1.4237-1.3825 0-2.1629-0.46-0.2453-2.935-1.6278-6.1329-3.4116l-4.4025 4.5042 4.4025 4.4819z" fill="#FFD400"/>
<path d="m15.135 14.362-14.062 14.427c0.32855 0.0446 0.7009-0.0446 1.139-0.2899 0.91993-0.5128 10.689-5.9535 17.325-9.655l-4.4025-4.4819z" fill="#f33"/>
<path d="m15.136 14.362 4.4026-4.5042s-16.34-9.0753-17.325-9.6104c-0.37236-0.22298-0.78852-0.28987-1.1609-0.22298l14.084 14.338z" fill="#48FF48"/>
<path d="m15.135 14.362-14.084-14.338c-0.56948 0.13379-1.0514 0.64664-1.0514 1.6946v25.375c0 0.9588 0.37236 1.6501 1.0733 1.717l14.062-14.449z" fill="#3BCCFF"/>
</svg>
