<?xml version="1.0" encoding="UTF-8"?>
<svg viewBox="0 0 21 21" xmlns="http://www.w3.org/2000/svg">
<path d="m10.185 15.278c-2.8126 0-5.0926-2.2801-5.0926-5.0926 0-2.8126 2.28-5.0926 5.0926-5.0926 2.8126 0 5.0926 2.28 5.0926 5.0926 0 2.8125-2.28 5.0926-5.0926 5.0926z" clip-rule="evenodd" fill="#384459" fill-rule="evenodd"/>
<path d="m10.189 1.2734c-0.46877 0-0.84877 0.38-0.84877 0.84876v0.84877c0 0.46876 0.38 0.84876 0.84877 0.84876 0.4688 0 0.8488-0.38 0.8488-0.84876v-0.84877c0-0.46876-0.38-0.84876-0.8488-0.84876z" clip-rule="evenodd" fill="#384459" fill-rule="evenodd"/>
<path d="m10.189 16.551c-0.46877 0-0.84877 0.38-0.84877 0.8488v0.846c0 0.4688 0.38 0.8488 0.84877 0.8488 0.4688 0 0.8488-0.38 0.8488-0.8488v-0.846c0-0.4688-0.38-0.8488-0.8488-0.8488z" clip-rule="evenodd" fill="#384459" fill-rule="evenodd"/>
<path d="m19.1 10.184c0-0.46875-0.38-0.84876-0.8488-0.84876h-0.8488c-0.4687 0-0.8487 0.38001-0.8487 0.84876 0 0.4688 0.38 0.8488 0.8487 0.8488h0.8488c0.4688 0 0.8488-0.38 0.8488-0.8488z" clip-rule="evenodd" fill="#384459" fill-rule="evenodd"/>
<path d="m3.8221 10.184c0-0.46875-0.38-0.84876-0.84876-0.84876h-0.84603c-0.46876 0-0.84877 0.38001-0.84877 0.84876 0 0.4688 0.38001 0.8488 0.84877 0.8488h0.84603c0.46876 0 0.84876-0.38 0.84876-0.8488z" clip-rule="evenodd" fill="#384459" fill-rule="evenodd"/>
<path d="m16.49 16.485c0.3315-0.3315 0.3315-0.8689 0-1.2003l-0.6002-0.6002c-0.3314-0.3315-0.8688-0.3315-1.2003 0s-0.3315 0.8689 0 1.2003l0.6002 0.6002c0.3314 0.3315 0.8688 0.3315 1.2003 0z" clip-rule="evenodd" fill="#384459" fill-rule="evenodd"/>
<path d="m5.6869 5.6819c0.33147-0.33147 0.33147-0.86888 0-1.2003l-0.59823-0.59823c-0.33146-0.33147-0.86887-0.33147-1.2003 0-0.33147 0.33146-0.33147 0.86887 0 1.2003l0.59823 0.59824c0.33146 0.33146 0.86887 0.33146 1.2003 0z" clip-rule="evenodd" fill="#384459" fill-rule="evenodd"/>
<path d="m16.49 3.8833c-0.3315-0.33147-0.8689-0.33147-1.2003 0l-0.6002 0.60017c-0.3315 0.33146-0.3315 0.86887 0 1.2003 0.3315 0.33147 0.8689 0.33147 1.2003 0l0.6002-0.60017c0.3315-0.33146 0.3315-0.86887 0-1.2003z" clip-rule="evenodd" fill="#384459" fill-rule="evenodd"/>
<path d="m5.6869 14.686c-0.33146-0.3314-0.86887-0.3314-1.2003 0l-0.59824 0.5983c-0.33146 0.3314-0.33146 0.8688 0 1.2003 0.33147 0.3315 0.86888 0.3315 1.2003 0l0.59823-0.5982c0.33147-0.3315 0.33147-0.8689 0-1.2004z" clip-rule="evenodd" fill="#384459" fill-rule="evenodd"/>
</svg>
