<?xml version="1.0" encoding="UTF-8"?>
<svg fill="none" viewBox="0 0 25 24" xmlns="http://www.w3.org/2000/svg">
<path d="m25 12c0 6.6274-5.5964 12-12.5 12-6.9036 0-12.5-5.3726-12.5-12 0-6.6274 5.5964-12 12.5-12 6.9036 0 12.5 5.3726 12.5 12zm-12.052-3.1411c-1.2158 0.48547-3.6457 1.4903-7.2897 3.0144-0.59173 0.2259-0.9017 0.4469-0.92992 0.663-0.04769 0.3652 0.42869 0.509 1.0774 0.7048 0.08824 0.0267 0.17967 0.0543 0.2734 0.0835 0.63823 0.1992 1.4968 0.4322 1.9431 0.4414 0.40485 0.0084 0.85671-0.1518 1.3556-0.4807 3.4048-2.2063 5.1622-3.3215 5.2726-3.3455 0.0779-0.01696 0.1857-0.03829 0.2588 0.02408 0.0731 0.06235 0.0659 0.18045 0.0582 0.21215-0.0472 0.1931-1.9172 1.8621-2.8849 2.7258-0.3017 0.2692-0.5157 0.4602-0.5594 0.5038-0.098 0.0977-0.1979 0.1902-0.2939 0.279-0.5929 0.5487-1.0375 0.9602 0.0247 1.6322 0.5104 0.3229 0.9189 0.5899 1.3264 0.8563 0.445 0.291 0.8889 0.5812 1.4631 0.9426 0.1464 0.092 0.2861 0.1877 0.4222 0.2808 0.5179 0.3545 0.9832 0.6729 1.558 0.6221 0.334-0.0295 0.6791-0.331 0.8543-1.2302 0.4141-2.1253 1.2281-6.7299 1.4162-8.6274 0.0165-0.16624-0.0043-0.379-0.0209-0.4724-0.0167-0.09339-0.0515-0.22646-0.1779-0.32497-0.1498-0.11666-0.381-0.14126-0.4844-0.13952-0.4702 0.00795-1.1915 0.24874-4.6629 1.6348z" clip-rule="evenodd" fill="#000" fill-rule="evenodd"/>
</svg>
